<svg xmlns="http://www.w3.org/2000/svg" xmlns:xlink="http://www.w3.org/1999/xlink" width="500" zoomAndPan="magnify" viewBox="0 0 375 374.999991" height="500" preserveAspectRatio="xMidYMid meet" version="1.0"><defs><clipPath id="39e0c0e1a7"><path d="M 112.5 121 L 262.5 121 L 262.5 254 L 112.5 254 Z M 112.5 121 " clip-rule="nonzero"/></clipPath></defs><g clip-path="url(#39e0c0e1a7)"><path fill="#25a0c9" d="M 204.316406 122.136719 C 211.933594 123.660156 216.882812 131.074219 215.359375 138.691406 L 214.6875 142.03125 C 213.132812 149.851562 210.261719 157.292969 206.25 164.0625 L 248.4375 164.0625 C 256.199219 164.0625 262.5 170.359375 262.5 178.125 C 262.5 185.535156 256.785156 191.601562 249.519531 192.15625 C 251.777344 194.648438 253.125 197.957031 253.125 201.5625 C 253.125 208.417969 248.203125 214.128906 241.726562 215.359375 C 243.015625 217.46875 243.75 219.988281 243.75 222.65625 C 243.75 228.894531 239.675781 234.199219 234.050781 236.015625 C 234.257812 236.980469 234.375 238.007812 234.375 239.0625 C 234.375 246.824219 228.074219 253.125 220.3125 253.125 L 198.777344 253.125 C 193.210938 253.125 187.792969 251.484375 183.164062 248.40625 L 171.882812 240.878906 C 164.0625 235.664062 159.375 226.875 159.375 217.46875 L 159.375 184.890625 C 159.375 176.335938 163.269531 168.28125 169.921875 162.917969 L 172.089844 161.191406 C 179.851562 154.980469 185.15625 146.25 187.089844 136.523438 L 187.761719 133.183594 C 189.285156 125.566406 196.699219 120.613281 204.316406 122.136719 Z M 121.875 168.75 L 140.625 168.75 C 145.808594 168.75 150 172.9375 150 178.125 L 150 243.75 C 150 248.933594 145.808594 253.125 140.625 253.125 L 121.875 253.125 C 116.6875 253.125 112.5 248.933594 112.5 243.75 L 112.5 178.125 C 112.5 172.9375 116.6875 168.75 121.875 168.75 Z M 121.875 168.75 " fill-opacity="1" fill-rule="nonzero"/></g></svg>