<svg xmlns="http://www.w3.org/2000/svg" xmlns:xlink="http://www.w3.org/1999/xlink" width="500" zoomAndPan="magnify" viewBox="0 0 375 374.999991" height="500" preserveAspectRatio="xMidYMid meet" version="1.0"><defs><clipPath id="9dc5a21728"><path d="M 112.5 112.5 L 262.5 112.5 L 262.5 262.5 L 112.5 262.5 Z M 112.5 112.5 " clip-rule="nonzero"/></clipPath></defs><g clip-path="url(#9dc5a21728)"><path fill="#25a0c9" d="M 212.578125 121.054688 L 182.839844 150.820312 L 180.085938 148.066406 C 176.425781 144.402344 170.476562 144.402344 166.816406 148.066406 C 163.152344 151.726562 163.152344 157.675781 166.816406 161.335938 L 213.691406 208.210938 C 217.351562 211.875 223.300781 211.875 226.960938 208.210938 C 230.625 204.550781 230.625 198.601562 226.960938 194.941406 L 224.207031 192.1875 L 253.945312 162.421875 C 265.371094 150.996094 265.371094 132.480469 253.945312 121.082031 C 242.519531 109.6875 224.003906 109.65625 212.605469 121.082031 Z M 128.730469 207.214844 C 124.335938 211.609375 121.875 217.585938 121.875 223.796875 L 121.875 236.21875 L 114.082031 247.910156 C 111.589844 251.628906 112.089844 256.582031 115.253906 259.746094 C 118.417969 262.910156 123.367188 263.40625 127.089844 260.917969 L 138.777344 253.125 L 151.199219 253.125 C 157.410156 253.125 163.386719 250.664062 167.78125 246.269531 L 203.144531 210.90625 L 189.871094 197.636719 L 154.511719 232.996094 C 153.632812 233.875 152.429688 234.375 151.199219 234.375 L 140.625 234.375 L 140.625 223.796875 C 140.625 222.566406 141.121094 221.367188 142 220.488281 L 177.363281 185.125 L 164.089844 171.855469 Z M 128.730469 207.214844 " fill-opacity="1" fill-rule="nonzero"/></g></svg>