<svg xmlns="http://www.w3.org/2000/svg" xmlns:xlink="http://www.w3.org/1999/xlink" width="500" zoomAndPan="magnify" viewBox="0 0 375 374.999991" height="500" preserveAspectRatio="xMidYMid meet" version="1.0"><defs><clipPath id="9193aafbba"><path d="M 112.5 112.5 L 262.5 112.5 L 262.5 262.5 L 112.5 262.5 Z M 112.5 112.5 " clip-rule="nonzero"/></clipPath></defs><g clip-path="url(#9193aafbba)"><path fill="#25a0c9" d="M 161.71875 121.875 C 161.71875 116.6875 165.90625 112.5 171.09375 112.5 L 175.78125 112.5 C 180.964844 112.5 185.15625 116.6875 185.15625 121.875 L 187.5 121.875 C 192.683594 121.875 196.875 126.0625 196.875 131.25 L 196.875 196.875 C 196.875 202.058594 192.683594 206.25 187.5 206.25 L 185.15625 206.25 C 185.15625 211.433594 180.964844 215.625 175.78125 215.625 L 171.09375 215.625 C 165.90625 215.625 161.71875 211.433594 161.71875 206.25 L 159.375 206.25 C 154.1875 206.25 150 202.058594 150 196.875 L 150 131.25 C 150 126.0625 154.1875 121.875 159.375 121.875 Z M 121.875 243.75 L 206.25 243.75 C 226.960938 243.75 243.75 226.960938 243.75 206.25 C 243.75 185.535156 226.960938 168.75 206.25 168.75 L 206.25 150 C 237.304688 150 262.5 175.195312 262.5 206.25 C 262.5 220.664062 257.078125 233.789062 248.171875 243.75 L 253.125 243.75 C 258.308594 243.75 262.5 247.9375 262.5 253.125 C 262.5 258.308594 258.308594 262.5 253.125 262.5 L 121.875 262.5 C 116.6875 262.5 112.5 258.308594 112.5 253.125 C 112.5 247.9375 116.6875 243.75 121.875 243.75 Z M 145.3125 225 L 201.5625 225 C 204.140625 225 206.25 227.109375 206.25 229.6875 C 206.25 232.265625 204.140625 234.375 201.5625 234.375 L 145.3125 234.375 C 142.734375 234.375 140.625 232.265625 140.625 229.6875 C 140.625 227.109375 142.734375 225 145.3125 225 Z M 145.3125 225 " fill-opacity="1" fill-rule="nonzero"/></g></svg>