<svg xmlns="http://www.w3.org/2000/svg" xmlns:xlink="http://www.w3.org/1999/xlink" width="500" zoomAndPan="magnify" viewBox="0 0 375 374.999991" height="500" preserveAspectRatio="xMidYMid meet" version="1.0"><defs><clipPath id="da0ea37686"><path d="M 112.5 112.5 L 262.5 112.5 L 262.5 262.5 L 112.5 262.5 Z M 112.5 112.5 " clip-rule="nonzero"/></clipPath></defs><g clip-path="url(#da0ea37686)"><path fill="#25a0c9" d="M 225 164.0625 C 225 184.773438 208.210938 201.5625 187.5 201.5625 C 166.785156 201.5625 150 184.773438 150 164.0625 C 150 143.347656 166.785156 126.5625 187.5 126.5625 C 208.210938 126.5625 225 143.347656 225 164.0625 Z M 227.285156 131.25 C 217.820312 119.792969 203.523438 112.5 187.5 112.5 C 171.472656 112.5 157.175781 119.792969 147.714844 131.25 L 131.25 131.25 C 120.90625 131.25 112.5 139.65625 112.5 150 L 112.5 243.75 C 112.5 254.089844 120.90625 262.5 131.25 262.5 L 243.75 262.5 C 254.089844 262.5 262.5 254.089844 262.5 243.75 L 262.5 150 C 262.5 139.65625 254.089844 131.25 243.75 131.25 Z M 199.21875 178.125 C 199.21875 175.019531 198.015625 172.207031 196.023438 170.097656 L 205.867188 147.15625 C 206.894531 144.785156 205.78125 142.03125 203.40625 141.003906 C 201.035156 139.980469 198.28125 141.09375 197.253906 143.464844 L 187.410156 166.40625 C 180.964844 166.433594 175.78125 171.679688 175.78125 178.125 C 175.78125 184.597656 181.023438 189.84375 187.5 189.84375 C 193.972656 189.84375 199.21875 184.597656 199.21875 178.125 Z M 199.21875 178.125 " fill-opacity="1" fill-rule="nonzero"/></g></svg>