<svg xmlns="http://www.w3.org/2000/svg" xmlns:xlink="http://www.w3.org/1999/xlink" width="500" zoomAndPan="magnify" viewBox="0 0 375 374.999991" height="500" preserveAspectRatio="xMidYMid meet" version="1.0"><defs><clipPath id="bccba46370"><path d="M 120 120.832031 L 255 120.832031 L 255 254.332031 L 120 254.332031 Z M 120 120.832031 " clip-rule="nonzero"/></clipPath></defs><g clip-path="url(#bccba46370)"><path fill="#25a0c9" d="M 181.378906 122.1875 C 185.261719 120.390625 189.738281 120.390625 193.621094 122.1875 L 250.542969 148.523438 C 252.757812 149.542969 254.160156 151.757812 254.160156 154.207031 C 254.160156 156.660156 252.757812 158.875 250.542969 159.890625 L 193.621094 186.226562 C 189.738281 188.027344 185.261719 188.027344 181.378906 186.226562 L 124.457031 159.890625 C 122.242188 158.847656 120.835938 156.632812 120.835938 154.207031 C 120.835938 151.785156 122.242188 149.542969 124.457031 148.523438 Z M 236.6875 175.484375 L 250.542969 181.898438 C 252.757812 182.917969 254.160156 185.132812 254.160156 187.582031 C 254.160156 190.035156 252.757812 192.25 250.542969 193.265625 L 193.621094 219.601562 C 189.738281 221.402344 185.261719 221.402344 181.378906 219.601562 L 124.457031 193.265625 C 122.242188 192.222656 120.835938 190.007812 120.835938 187.582031 C 120.835938 185.160156 122.242188 182.917969 124.457031 181.898438 L 138.3125 175.484375 L 177.890625 193.789062 C 183.984375 196.605469 191.015625 196.605469 197.109375 193.789062 Z M 197.109375 227.164062 L 236.6875 208.859375 L 250.542969 215.273438 C 252.757812 216.292969 254.160156 218.507812 254.160156 220.957031 C 254.160156 223.410156 252.757812 225.625 250.542969 226.640625 L 193.621094 252.976562 C 189.738281 254.777344 185.261719 254.777344 181.378906 252.976562 L 124.457031 226.640625 C 122.242188 225.597656 120.835938 223.382812 120.835938 220.957031 C 120.835938 218.535156 122.242188 216.292969 124.457031 215.273438 L 138.3125 208.859375 L 177.890625 227.164062 C 183.984375 229.980469 191.015625 229.980469 197.109375 227.164062 Z M 197.109375 227.164062 " fill-opacity="1" fill-rule="nonzero"/></g></svg>