<svg xmlns="http://www.w3.org/2000/svg" xmlns:xlink="http://www.w3.org/1999/xlink" width="500" zoomAndPan="magnify" viewBox="0 0 375 374.999991" height="500" preserveAspectRatio="xMidYMid meet" version="1.0"><defs><clipPath id="34ca37e3c4"><path d="M 117 112.5 L 258 112.5 L 258 262 L 117 262 Z M 117 112.5 " clip-rule="nonzero"/></clipPath></defs><g clip-path="url(#34ca37e3c4)"><path fill="#25a0c9" d="M 191.425781 113.347656 C 190.195312 112.792969 188.875 112.5 187.5 112.5 C 186.121094 112.5 184.804688 112.792969 183.574219 113.347656 L 128.40625 136.757812 C 121.960938 139.480469 117.15625 145.839844 117.1875 153.515625 C 117.332031 182.578125 129.285156 235.75 179.765625 259.921875 C 184.65625 262.265625 190.339844 262.265625 195.234375 259.921875 C 245.710938 235.75 257.664062 182.578125 257.8125 153.515625 C 257.839844 145.839844 253.035156 139.480469 246.589844 136.757812 Z M 154.6875 177.332031 C 154.6875 167.429688 162.714844 159.375 172.644531 159.375 C 177.390625 159.375 181.960938 161.277344 185.332031 164.617188 L 187.5 166.785156 L 189.667969 164.617188 C 193.035156 161.25 197.605469 159.375 202.351562 159.375 C 212.253906 159.375 220.3125 167.402344 220.3125 177.332031 C 220.3125 182.078125 218.40625 186.648438 215.066406 190.019531 L 190.839844 214.246094 C 189.023438 216.0625 186.035156 216.0625 184.21875 214.246094 L 159.988281 190.019531 C 156.621094 186.648438 154.746094 182.078125 154.746094 177.332031 Z M 154.6875 177.332031 " fill-opacity="1" fill-rule="nonzero"/></g></svg>