<svg xmlns="http://www.w3.org/2000/svg" xmlns:xlink="http://www.w3.org/1999/xlink" width="500" zoomAndPan="magnify" viewBox="0 0 375 374.999991" height="500" preserveAspectRatio="xMidYMid meet" version="1.0"><defs><clipPath id="7ab5625197"><path d="M 126 112.5 L 249 112.5 L 249 262.5 L 126 262.5 Z M 126 112.5 " clip-rule="nonzero"/></clipPath></defs><g clip-path="url(#7ab5625197)"><path fill="#25a0c9" d="M 173.472656 112.539062 C 168.285156 112.539062 164.097656 116.726562 164.097656 121.910156 C 164.097656 127.09375 168.285156 131.28125 173.472656 131.28125 L 178.160156 131.28125 L 178.160156 141.351562 C 148.949219 145.863281 126.597656 171.101562 126.597656 201.554688 C 126.597656 235.199219 153.871094 262.460938 187.535156 262.460938 C 221.195312 262.460938 248.472656 235.199219 248.472656 201.554688 C 248.472656 189.316406 244.867188 177.925781 238.65625 168.410156 L 245.71875 161.351562 C 249.378906 157.691406 249.378906 151.746094 245.71875 148.085938 C 242.054688 144.425781 236.109375 144.425781 232.445312 148.085938 L 226.117188 154.414062 C 217.886719 147.675781 207.894531 143.050781 196.910156 141.351562 L 196.910156 131.28125 L 201.597656 131.28125 C 206.78125 131.28125 210.972656 127.09375 210.972656 121.910156 C 210.972656 116.726562 206.78125 112.539062 201.597656 112.539062 Z M 194.566406 168.761719 L 194.566406 206.238281 C 194.566406 210.132812 191.429688 213.265625 187.535156 213.265625 C 183.636719 213.265625 180.503906 210.132812 180.503906 206.238281 L 180.503906 168.761719 C 180.503906 164.867188 183.636719 161.734375 187.535156 161.734375 C 191.429688 161.734375 194.566406 164.867188 194.566406 168.761719 Z M 194.566406 168.761719 " fill-opacity="1" fill-rule="nonzero"/></g></svg>