<svg xmlns="http://www.w3.org/2000/svg" xmlns:xlink="http://www.w3.org/1999/xlink" width="500" zoomAndPan="magnify" viewBox="0 0 375 374.999991" height="500" preserveAspectRatio="xMidYMid meet" version="1.0"><defs><clipPath id="174b09cb61"><path d="M 131.183594 112.5 L 243.683594 112.5 L 243.683594 262.5 L 131.183594 262.5 Z M 131.183594 112.5 " clip-rule="nonzero"/></clipPath></defs><g clip-path="url(#174b09cb61)"><path fill="#25a0c9" d="M 140.609375 112.5 C 135.429688 112.5 131.246094 116.6875 131.246094 121.875 C 131.246094 127.058594 135.429688 131.25 140.609375 131.25 L 140.609375 134.472656 C 140.609375 146.894531 145.554688 158.816406 154.335938 167.605469 L 174.175781 187.5 L 154.335938 207.390625 C 145.554688 216.179688 140.609375 228.105469 140.609375 240.527344 L 140.609375 243.75 C 135.429688 243.75 131.246094 247.9375 131.246094 253.125 C 131.246094 258.308594 135.429688 262.5 140.609375 262.5 L 234.253906 262.5 C 239.433594 262.5 243.617188 258.308594 243.617188 253.125 C 243.617188 247.9375 239.433594 243.75 234.253906 243.75 L 234.253906 240.527344 C 234.253906 228.105469 229.308594 216.179688 220.527344 207.390625 L 200.6875 187.5 L 220.558594 167.605469 C 229.335938 158.816406 234.28125 146.894531 234.28125 134.472656 L 234.28125 131.25 C 239.460938 131.25 243.648438 127.058594 243.648438 121.875 C 243.648438 116.6875 239.460938 112.5 234.28125 112.5 Z M 159.339844 134.472656 L 159.339844 131.25 L 215.523438 131.25 L 215.523438 134.472656 C 215.523438 141.941406 212.570312 149.089844 207.300781 154.363281 L 187.433594 174.226562 L 167.5625 154.335938 C 162.292969 149.089844 159.339844 141.914062 159.339844 134.472656 Z M 159.339844 134.472656 " fill-opacity="1" fill-rule="nonzero"/></g></svg>