<svg xmlns="http://www.w3.org/2000/svg" xmlns:xlink="http://www.w3.org/1999/xlink" width="500" zoomAndPan="magnify" viewBox="0 0 375 374.999991" height="500" preserveAspectRatio="xMidYMid meet" version="1.0"><defs><clipPath id="d86d0d0a83"><path d="M 112.5 127.5 L 262.5 127.5 L 262.5 247.5 L 112.5 247.5 Z M 112.5 127.5 " clip-rule="nonzero"/></clipPath></defs><g clip-path="url(#d86d0d0a83)"><path fill="#25a0c9" d="M 123.75 138.75 L 144.375 138.75 C 147.492188 138.75 150 136.242188 150 133.125 C 150 130.007812 147.492188 127.5 144.375 127.5 L 120 127.5 C 115.851562 127.5 112.5 130.851562 112.5 135 L 112.5 159.375 C 112.5 162.492188 115.007812 165 118.125 165 C 121.242188 165 123.75 162.492188 123.75 159.375 Z M 153.703125 180 C 159.914062 180 164.953125 174.960938 164.953125 168.75 C 164.953125 162.539062 159.914062 157.5 153.703125 157.5 C 147.492188 157.5 142.453125 162.539062 142.453125 168.75 C 142.453125 174.960938 147.492188 180 153.703125 180 Z M 147.492188 187.5 C 140.601562 187.5 135 193.101562 135 199.992188 C 135 203.4375 137.789062 206.25 141.257812 206.25 L 154.40625 206.25 C 156.28125 198.257812 162.09375 191.789062 169.6875 189 C 167.929688 188.039062 165.890625 187.5 163.757812 187.5 Z M 233.742188 206.25 C 237.1875 206.25 240 203.460938 240 199.992188 C 240 193.078125 234.398438 187.5 227.507812 187.5 L 211.242188 187.5 C 209.085938 187.5 207.070312 188.039062 205.3125 189 C 212.90625 191.789062 218.71875 198.257812 220.59375 206.25 Z M 212.789062 206.25 C 210.773438 200.554688 205.78125 196.265625 199.6875 195.234375 C 198.773438 195.070312 197.835938 195 196.875 195 L 178.125 195 C 177.164062 195 176.226562 195.070312 175.3125 195.234375 C 169.21875 196.265625 164.226562 200.554688 162.210938 206.25 C 161.578125 208.007812 161.25 209.90625 161.25 211.875 C 161.25 214.992188 163.757812 217.5 166.875 217.5 L 208.125 217.5 C 211.242188 217.5 213.75 214.992188 213.75 211.875 C 213.75 209.90625 213.421875 208.007812 212.789062 206.25 Z M 221.25 180 C 227.460938 180 232.5 174.960938 232.5 168.75 C 232.5 162.539062 227.460938 157.5 221.25 157.5 C 215.039062 157.5 210 162.539062 210 168.75 C 210 174.960938 215.039062 180 221.25 180 Z M 202.5 172.5 C 202.5 164.226562 195.773438 157.5 187.5 157.5 C 179.226562 157.5 172.5 164.226562 172.5 172.5 C 172.5 180.773438 179.226562 187.5 187.5 187.5 C 195.773438 187.5 202.5 180.773438 202.5 172.5 Z M 230.625 138.75 L 251.25 138.75 L 251.25 159.375 C 251.25 162.492188 253.757812 165 256.875 165 C 259.992188 165 262.5 162.492188 262.5 159.375 L 262.5 135 C 262.5 130.851562 259.148438 127.5 255 127.5 L 230.625 127.5 C 227.507812 127.5 225 130.007812 225 133.125 C 225 136.242188 227.507812 138.75 230.625 138.75 Z M 123.75 236.25 L 123.75 215.625 C 123.75 212.507812 121.242188 210 118.125 210 C 115.007812 210 112.5 212.507812 112.5 215.625 L 112.5 240 C 112.5 244.148438 115.851562 247.5 120 247.5 L 144.375 247.5 C 147.492188 247.5 150 244.992188 150 241.875 C 150 238.757812 147.492188 236.25 144.375 236.25 Z M 230.625 236.25 C 227.507812 236.25 225 238.757812 225 241.875 C 225 244.992188 227.507812 247.5 230.625 247.5 L 255 247.5 C 259.148438 247.5 262.5 244.148438 262.5 240 L 262.5 215.625 C 262.5 212.507812 259.992188 210 256.875 210 C 253.757812 210 251.25 212.507812 251.25 215.625 L 251.25 236.25 Z M 230.625 236.25 " fill-opacity="1" fill-rule="nonzero"/></g></svg>