<svg xmlns="http://www.w3.org/2000/svg" xmlns:xlink="http://www.w3.org/1999/xlink" width="500" zoomAndPan="magnify" viewBox="0 0 375 374.999991" height="500" preserveAspectRatio="xMidYMid meet" version="1.0"><defs><clipPath id="76b1984c9f"><path d="M 112.5 120.832031 L 262.5 120.832031 L 262.5 254.332031 L 112.5 254.332031 Z M 112.5 120.832031 " clip-rule="nonzero"/></clipPath></defs><g clip-path="url(#76b1984c9f)"><path fill="#25a0c9" d="M 151.042969 140.804688 C 151.042969 129.777344 159.976562 120.832031 170.992188 120.832031 C 176.277344 120.832031 181.355469 122.945312 185.078125 126.675781 L 187.5 129.097656 L 189.921875 126.675781 C 193.644531 122.945312 198.722656 120.832031 204.007812 120.832031 C 215.023438 120.832031 223.957031 129.777344 223.957031 140.804688 C 223.957031 146.097656 221.847656 151.183594 218.121094 154.914062 L 191.171875 181.875 C 189.140625 183.90625 185.832031 183.90625 183.800781 181.875 L 156.878906 154.914062 C 153.152344 151.183594 151.042969 146.097656 151.042969 140.804688 Z M 260.464844 208.519531 C 263.875 213.164062 262.886719 219.679688 258.25 223.097656 L 225.285156 247.421875 C 219.191406 251.910156 211.847656 254.332031 204.269531 254.332031 L 120.835938 254.332031 C 116.230469 254.332031 112.503906 250.605469 112.503906 245.988281 L 112.503906 229.300781 C 112.503906 224.6875 116.230469 220.957031 120.835938 220.957031 L 130.421875 220.957031 L 142.113281 211.570312 C 148.023438 206.824219 155.367188 204.269531 162.945312 204.269531 L 204.164062 204.269531 C 208.773438 204.269531 212.5 208 212.5 212.613281 C 212.5 217.230469 208.773438 220.957031 204.164062 220.957031 L 183.332031 220.957031 C 181.042969 220.957031 179.167969 222.835938 179.167969 225.128906 C 179.167969 227.425781 181.042969 229.300781 183.332031 229.300781 L 214.738281 229.300781 L 245.90625 206.304688 C 250.542969 202.890625 257.050781 203.878906 260.464844 208.519531 Z M 162.917969 220.957031 L 162.683594 220.957031 C 162.761719 220.957031 162.839844 220.957031 162.917969 220.957031 Z M 162.917969 220.957031 " fill-opacity="1" fill-rule="nonzero"/></g></svg>