<svg xmlns="http://www.w3.org/2000/svg" xmlns:xlink="http://www.w3.org/1999/xlink" width="500" zoomAndPan="magnify" viewBox="0 0 375 374.999991" height="500" preserveAspectRatio="xMidYMid meet" version="1.0"><defs><clipPath id="aafb1fcc31"><path d="M 112.5 121 L 262.5 121 L 262.5 254 L 112.5 254 Z M 112.5 121 " clip-rule="nonzero"/></clipPath></defs><g clip-path="url(#aafb1fcc31)"><path fill="#25a0c9" d="M 192.1875 140.625 C 169.160156 140.625 149.675781 155.710938 143.054688 176.511719 C 152.898438 171.53125 164.003906 168.75 175.78125 168.75 L 201.5625 168.75 C 204.140625 168.75 206.25 170.859375 206.25 173.4375 C 206.25 176.015625 204.140625 178.125 201.5625 178.125 L 175.78125 178.125 C 170.917969 178.125 166.199219 178.679688 161.628906 179.707031 C 154.042969 181.433594 147.011719 184.511719 140.710938 188.699219 C 123.71875 200.039062 112.5 219.402344 112.5 241.40625 L 112.5 246.09375 C 112.5 249.988281 115.632812 253.125 119.53125 253.125 C 123.425781 253.125 126.5625 249.988281 126.5625 246.09375 L 126.5625 241.40625 C 126.5625 227.136719 132.625 214.304688 142.324219 205.3125 C 148.125 227.429688 168.25 243.75 192.1875 243.75 L 192.480469 243.75 C 231.179688 243.542969 262.5 205.398438 262.5 158.378906 C 262.5 145.898438 260.300781 134.03125 256.316406 123.339844 C 255.554688 121.316406 252.597656 121.40625 251.570312 123.308594 C 246.0625 133.621094 235.164062 140.625 222.65625 140.625 Z M 192.1875 140.625 " fill-opacity="1" fill-rule="nonzero"/></g></svg>